<mxfile host="app.diagrams.net" modified="2022-03-07T08:54:50.911Z" agent="5.0 (Windows)" etag="QcZfTpuPz8Y6ocU6-a83" version="16.6.4" type="github">
  <diagram id="oiwkC_d4mJ4y5r3PH-jd" name="Page-1">
    <mxGraphModel dx="1292" dy="927" grid="1" gridSize="10" guides="1" tooltips="1" connect="1" arrows="1" fold="1" page="1" pageScale="1" pageWidth="930" pageHeight="459" math="0" shadow="0">
      <root>
        <mxCell id="0" />
        <mxCell id="1" parent="0" />
        <mxCell id="yjiwPZWO-EfZb8wQe-7q-1" value="" style="endArrow=none;html=1;rounded=0;" parent="1" edge="1">
          <mxGeometry width="50" height="50" relative="1" as="geometry">
            <mxPoint x="440" y="340" as="sourcePoint" />
            <mxPoint x="490" y="290" as="targetPoint" />
          </mxGeometry>
        </mxCell>
      </root>
    </mxGraphModel>
  </diagram>
</mxfile>
